<svg viewBox="0 0 72 72" xmlns="http://www.w3.org/2000/svg"><g fill="none" stroke="#000" stroke-linecap="round" stroke-linejoin="round" stroke-width="2"><circle cx="41.4376" cy="25.5373" r="5"/><path d="m20.8366 32.5393c3.992 4.886 2.805 12.462 2.805 12.462s-7.66-.347-11.653-5.233-2.805-12.462-2.805-12.462 7.66.347 11.653 5.233z"/><path d="m32.0106 41.0902c-3.438 3.548-7.676 10.246-5.829 20.735"/><path d="m47.1886 13.4433.533 1.209 1.313-.143c3.4507-.3755 6.5525 2.1174 6.9281 5.5682.1698 1.5599-.2501 3.1268-1.177 4.3928l-.78 1.066.78 1.066c2.0506 2.8007 1.4425 6.7334-1.3582 8.784-1.266.9269-2.833 1.3468-4.3928 1.177l-1.313-.143-.533 1.209c-1.4014 3.1756-5.1118 4.6139-8.2875 3.2125-1.434-.6328-2.5797-1.7786-3.2125-3.2125l-.533-1.209-1.313.143c-3.4507.3755-6.5525-2.1174-6.928-5.5682-.1697-1.5599.2501-3.1268 1.177-4.3928l.78-1.066-.78-1.066c-2.0506-2.8007-1.4425-6.7334 1.3582-8.784 1.266-.9269 2.833-1.3468 4.3928-1.177l1.313.143.533-1.209c1.4014-3.1756 5.1118-4.6139 8.2875-3.2125 1.4339.6327 2.5796 1.7785 3.2124 3.2125z"/></g></svg>